<svg fill="#FFF" xmlns="http://www.w3.org/2000/svg" width="24" height="24"><path d="M12.063 0c-2.29 0-2.25.219-2.25.219-.274 1.32-.56 2.215-.75 2.75a9.574 9.574 0 0 0-3.157 1.75c-.554-.11-1.449-.313-2.687-.75 0 0-.168-.145-1.344 1.844-1.18 1.988-1 2.093-1 2.093.914.86 1.512 1.52 1.875 1.969a9.587 9.587 0 0 0-.063 4.063c-.37.44-.98 1.105-1.906 1.937 0 0-.168.082.969 2.094 1.137 2.011 1.281 1.875 1.281 1.875 1.25-.414 2.16-.59 2.719-.688a9.368 9.368 0 0 0 3.156 1.813c.196.527.5 1.445.781 2.812 0 0-.035.219 2.25.219 2.286 0 2.282-.219 2.282-.219.273-1.316.523-2.215.719-2.75a9.574 9.574 0 0 0 3.156-1.75c.554.11 1.449.313 2.687.75 0 0 .164.145 1.344-1.843 1.176-1.989 1-2.094 1-2.094-.914-.86-1.512-1.52-1.875-1.969a9.555 9.555 0 0 0 .063-4.063c.37-.44.98-1.105 1.906-1.937 0 0 .168-.082-.969-2.094-1.137-2.011-1.281-1.875-1.281-1.875-1.25.414-2.16.59-2.719.688a9.434 9.434 0 0 0-3.156-1.813c-.192-.527-.5-1.445-.781-2.812 0 0 .035-.219-2.25-.219ZM12 4a8 8 0 1 1 0 16 8 8 0 0 1 0-16Zm0 1c-3.867 0-7 3.133-7 7s3.133 7 7 7 7-3.133 7-7-3.133-7-7-7Zm0 3c2.21 0 4 1.79 4 4s-1.79 4-4 4-4-1.79-4-4 1.79-4 4-4Z"/></svg>